<svg id="Layer_1" data-name="Layer 1" xmlns="http://www.w3.org/2000/svg" viewBox="0 0 278.95 128.75"><defs><style>.cls-1{fill:#fff;}</style></defs><title>logo</title><path class="cls-1" d="M241.86,117.17a3.92,3.92,0,0,0,.16-.56h0c1.21-3.47-3-5.07-3-5.07l-.9-.41-7.85-3.28a2,2,0,0,1-1.06-.86,4,4,0,0,1,0-1.45H215.53a10.5,10.5,0,0,0-.75,3.52v.3h0a2.54,2.54,0,0,0,1.58,2.31l1.52.7c2.81,1.29,5.6,2.64,8.44,3.86l2.61,1.2.27.19h0a1,1,0,0,1,.26,1,1,1,0,0,1-1,.71,4.35,4.35,0,0,1-.51,0h-20a.68.68,0,0,0-.79.56l-2.2,6.78c-.21.58,0,.93.66,1H206l13.88,0h14a6.18,6.18,0,0,0,3.44-.94,4.59,4.59,0,0,0,.88-.77,5.4,5.4,0,0,0,.87-1.35C240.08,122.16,241,119.66,241.86,117.17Z"/><path class="cls-1" d="M277.13,126q-7.32-13.32-14.95-26.48a2.13,2.13,0,0,0-.16-.25,4.42,4.42,0,0,0-4-2.39H189.89a.88.88,0,0,0-.37.08l-.11.08h0l0,.07h0v0l-.23.54L187.38,102c-.13.31-.26.63-.4.95,0,.05,0,.09,0,.13h0c-.18.56.1.93.73.93h7.7c1.62,0,2.35.75,2.36,2.38a10.81,10.81,0,0,1-1,3.78q-3.09,8.43-6.25,16.83c-.18.5-.14.64.41.64H201c1,0,1.43-.2,1.8-1a3,3,0,0,0,.17-.4c1.72-4.48,3.41-9,5.14-13.44A39.82,39.82,0,0,1,210.6,107a5.49,5.49,0,0,1,4.81-3h.32c3.93,0,7.87,0,11.81,0H250.4a2.2,2.2,0,0,1,2.15,1.26c1,1.93,2.18,3.8,3.28,5.69,1.29,2.24,2.58,4.49,3.85,6.74.42.74.16,1.23-.7,1.33a2,2,0,0,1-.35,0h-6.19a.71.71,0,0,0-.79.54c-.86,2.33-1.75,4.65-2.63,7-.4,1.06-.38,1.09.76,1.09h26.38C277.59,127.65,277.82,127.28,277.13,126Z"/><path class="cls-1" d="M253.33,110a.57.57,0,0,0-.05-.49l-2-3.38a1.16,1.16,0,0,0-1-.58h-8.67l-1.73,4.81s5.43,2.12,3.38,7.89c-.53,1.38-1.07,2.76-1.54,4.16l-1,2.82-.15.27a8,8,0,0,1-.72,1,5.31,5.31,0,0,1-.7.63,7.13,7.13,0,0,1-.58.53v0h8c.27,0,.4-.16.51-.45q3-8.37,6.07-16.75Z"/><path class="cls-1" d="M140.66,65.64q-.54-2.85-1.08-5.94c-.71-4-2.3-10.82-1-12.21a3,3,0,0,1,2.11-.67c-.17-.65-.38-1.29-.61-1.91-3.83-.09-8.92,0-12.72-.59.78,4.85,2,9.77,2.78,14.81a9.84,9.84,0,0,1,.33,1.54,11.17,11.17,0,0,1,.31,2c.12.66.25,1.39.38,2.15a25.29,25.29,0,0,1-4.05-1c-3.68-1-6.42-2.24-10.57-2.78l-.79-.74c-.79-3.94-2.6-10.88-1.31-12.31a3,3,0,0,1,2.1-.73c-.18-.64-.41-1.27-.65-1.89-3.84,0-8.92.22-12.73-.3.89,4.82,2.18,9.71,3.14,14.73a4.55,4.55,0,0,1,.32,1.32,21.48,21.48,0,0,0-7.07,1.92l1,5.91s2.16-1.58,7.15-2.17c.22,1.11.46,2.28.7,3.48.51,2.53,1.41,5.47,1.09,7.12-.4,2-2.64,1.78-4.44,2.7l.35,1.73c6.27-.25,14.17-.36,20.14-.7l-.35-1.73c-3.19,0-5.4-1.56-6.59-6.16-.51-2-1-4.11-1.51-6.42,6.93.69,10.1,1.56,14.28,2l.58.55a46,46,0,0,1,1,6.38,22.4,22.4,0,0,0,.22,3c.11.77.23,1.53.36,2.3,4.8,0,10.84,0,15.3-.19l-.31-1.73c-3.19-.09-5.36-1.69-6.44-6.32-.27-1.18-.54-2.44-.81-3.76,3.76-.25,5.84-.65,6.68-1.21a11,11,0,0,0,2-1.95S145.82,65.93,140.66,65.64Z"/><path class="cls-1" d="M180.89,68.76c-1.94-8.08-15.33-7.31-20.83-11C156,55,156.25,47.94,163,47.35c5.72-.5,9,3.12,11.12,7a5.27,5.27,0,0,0,1.59-.16,74.81,74.81,0,0,0,1-10c-6.55,2.22-10.29-.35-16.53.79-7,1.28-12.27,6.27-12,11.72.49,8.43,10,9.88,16.49,11.55,3.48.9,7.65,1.76,8.21,5.54.73,5-6.09,7.68-10.13,5.28-2.59-1.54-3.75-4.39-5.42-7.27-.9.25-1.44.06-2.31.28.22,2.87.68,5.89.64,8.62,6.28-.6,8.33,2.21,15.15.57C178.2,79.49,182.4,75,180.89,68.76Z"/><path class="cls-1" d="M49,49.51C47.53,36.77,36.25,30.1,21.65,31.11,11.27,31.82.58,38,1,48.48c.21,5.09,4,7.48,9,8.26-2.05-2-4.54-4.41-4.3-9,.64-12.56,23.9-15.42,30.44-4.64,4.86,8,.71,19-8.08,20-.21-7.32.57-14.56.17-21.5-6.58,2.19-13.57,4-20.13,6.19V50c1.58,0,4.71-1,6.37,0,2.27,1.33,1.72,9.55,1.72,14.27,0,5.82,0,11.15-.35,15.66-.37,5.56-1.82,7.61-6.44,8.36L8.9,90.53c8.75-1,17.71-2.35,26.86-3.52,4.5-.59,10-2.78,10.72-3.54s4.39-5.73,0-13.94c-1.67-3.12-4.88-4.58-8.22-5.2A16.83,16.83,0,0,0,48.55,53.87a9.62,9.62,0,0,0,.57-3A5.31,5.31,0,0,0,49,49.71ZM37.82,80c-2.6,2.68-6.54,3.31-8.88,3.44a2.93,2.93,0,0,1-.41-.59c-1-1.82-.51-5.4-.51-8.43,0-1.21,0-2.4,0-3.54,1.2,0,2.56,0,4,0C37.06,70.87,41.71,76,37.82,80Z"/><path class="cls-1" d="M113.11,96.57h0a13.91,13.91,0,0,1-3.36-.9,14.35,14.35,0,0,1-2.66-1.33,31.49,31.49,0,0,1-7.88-7.18c-.26-.3-.57-.71-.91-1.18s-.6-.86-.6-.86h0c-1.38-2-2.92-4.49-3-4.49-3.24-4.56-5-10.36-8.74-14.41a11.35,11.35,0,0,0,6.3-4.15l.19-.21c3.25-4,4.33-9.69-.29-13.39-7.48-6-26.38-1.16-38.59-2.24a.54.54,0,0,0-.38.6l0,1.38c1.74.2,3.6.28,4.58,1.28,1.28,3.2,1.39,8.71,1.52,14.19s.78,11,.36,15c-.4,3.7-3.14,4-5.61,5.07l0,1.58c6.86-.43,15.57-.81,21.62-1.82a.56.56,0,0,0,.46-.56v-.58a.54.54,0,0,0-.32-.48c-1.32-.6-2.55-.06-3.48-1.14-2-2.36-.49-9.14-.89-12.63,4.44-.7,5.84,2.75,7.64,5.56,4.39,6.82,8.46,13.92,14.09,18.83s14.9,8.93,24,4.38h0A21.43,21.43,0,0,1,113.11,96.57Zm-41.65-33c0-4.68-.53-9.76-.31-14.17,5.14-.7,9.25,1,9.89,5.09C81.93,60.2,77.82,63.94,71.46,63.59Z"/><path class="cls-1" d="M81,88.61s-38.38,2.76-54.87,5-18,2.81-18,2.81l-1.6,8.31a230.46,230.46,0,0,1,29.17-7C52,94.91,84.91,93.19,84.91,93.19A22.86,22.86,0,0,1,81,88.61Z"/><path class="cls-1" d="M273.81,87.86a1,1,0,0,0-1-.32.75.75,0,0,0-.74.65,1,1,0,0,0,.47.94.62.62,0,0,1,0,.38,2.29,2.29,0,0,1-2.28,1.4,41,41,0,0,1-8.5-1.38l-.86-.28a6.48,6.48,0,0,0,3.9-4.93h0a0,0,0,0,0,0,0v0h0a1.48,1.48,0,0,0-.62-1.61l-.07,0-.08,0a1.14,1.14,0,0,0-.49-.12,1.08,1.08,0,0,0-1.08,1.08,1,1,0,0,0,.2.62h0l.1.12a1.3,1.3,0,0,0,.23.18.71.71,0,0,1,.15.39.64.64,0,0,1-.17.43.74.74,0,0,1-.22.14h0l0,0c-4.07,2.35-8.59.92-11.19-.32a17.15,17.15,0,0,1-2.16-1.22l0,0c-4-3.6-2.87-7.21-2.24-8.53a.52.52,0,0,1,.74-.23c.86.51,2.75,1.37,3.8-.08,1.36-1.89.22-2.82-.46-3.17a.43.43,0,0,1-.16-.59,6.65,6.65,0,0,0,.83-4c-.14-1.41-.4-2.82-.48-4.24-.07-1.15.24-2,1.71-2.21a11.29,11.29,0,0,0,10.43-11.23c0-.42,0-1.19.12-1.21,2.55-.51.62-1.84.32-2.49-.62-1.34-.27-2,.81-2.85,1.63-1.21,3.19-2.51,4.76-3.8h0s.8-.9-.78-.26a17.7,17.7,0,0,0-3.23,2.2c-2.68,2-2.66,2-5.3.06a6.74,6.74,0,0,0-1.82-1.11c-1-.3-1.23-.86-1.4-1.83-.67-3.72-1.75-7.28-4.53-9.94a.43.43,0,0,1,.36-.74.42.42,0,0,0,.35-.73,8.81,8.81,0,0,0-2.52-1.66l-.05,0-.17-.07c-.17-.08-.36-.16-.58-.24l-.17-.05-.32-.11-.13,0-.15,0-1.41-.44h0a2.33,2.33,0,0,1-1.4-2.94,5.94,5.94,0,0,0,.08-.71h0c1-7.33-3.5-9.66-5.11-10.25a1.33,1.33,0,0,1-.8-.76,8.44,8.44,0,0,1-.59-3.16h0s0-.84.77-.8h.09a8.78,8.78,0,0,1,3.34.77.84.84,0,0,0,1.11-.5,6,6,0,0,1,.33-.7.94.94,0,0,0-.32-1.29,10.52,10.52,0,0,0-4.5-1.33,2.92,2.92,0,0,0-1.15.15l-.19.11c-.67.62-.57,2.52-.47,3.47a4,4,0,0,1,.06.51v0h0A5.92,5.92,0,0,1,238.78,9h0a1,1,0,0,1-.16.44v0a.73.73,0,0,1-.64.27h0a2.6,2.6,0,0,1-.37,0,33.94,33.94,0,0,0-6.23.11.54.54,0,0,0-.22,1c3.5,2.12,4.6,5.28,3.25,9l0,.1a1.13,1.13,0,0,1-1.3.72c-2.09-.42-3.31-.6-3.31-.6h0a19.07,19.07,0,0,0-2.5-.5c-1.47-.2-1.86-.44-1.71-2,.47-5-2.11-10.45-5.95-11.64-.24-.07-.46-.15-.67-.23h0A19,19,0,0,0,216.43,5a.91.91,0,0,1-.76-.81l-.26-2.49a.36.36,0,0,0-.35-.32h-.16a.42.42,0,0,0-.41.41V3.88a.83.83,0,0,1-.89.83c-1.14-.08-1.94-.08-2-.08h0a13.91,13.91,0,0,0-6.65,1.84.54.54,0,0,0,.15,1c3.37.76,5.11,3.11,5.8,6.26.85,3.87,0,7.38-3.33,10-2.07,1.59-4.34,2.93-6.41,5.34h0l-.34-.38-1-1.08,0,0a69,69,0,0,0-11.23-9.61.53.53,0,0,0-.65.83c5.71,5.37,9.26,12.19,11.61,19.78,1.54,5,2.45,10.05,1.38,15.26h0l0,.1c-.06.3-.13.61-.21.91a.24.24,0,0,1,0,.08l-.17.71a1.18,1.18,0,0,1-1.2.92l-2.54-.08h-.17a.78.78,0,0,1-.79-.66l-1-6.64a.53.53,0,0,0-.52-.45h-.51c-.38-.31-3.37-2.5-6,2.12-2,3.53-2.9,5.67-3.72,5.84a.67.67,0,0,0-.53.63c0,1.12,0,3.6,1,5.12,1.29,2,5.66-9.6,5.66-9.6s1.68-3.71,3.78-1.52h0l.48,4.45a.76.76,0,0,1-.74.84h-.29v0h-.17a.91.91,0,0,0-.92.82c-.05.58.33.84.76,1l8.24,2.84s.47.44-.2.53l-1-.33h0L199,61.15l-5.84-1.89s-1.07-.4-1.32.4.65,1.2,1,1.36l.08,0h0c.19.08.42.14.66.24a35.35,35.35,0,0,0,9.55,2.47h0s.81.32,0,.64c-3.4-.12-10-2.41-10.95-2.74l-.09,0h0c-.14,0-.27,0-.38.22s-.24.87-.1,1c1.14.84.76,2,.8,3.12,0,.33-.09.94.27.9,2.87-.28,2.72,2.25,3.43,3.79a28.22,28.22,0,0,0,2.85,5.55A4.08,4.08,0,0,0,200,77.38a.53.53,0,0,1-.14.86c-1.82.87-3.85,1-5.64,1.88a3.39,3.39,0,0,0,2.13-.17,13.53,13.53,0,0,0,3.55-.84c.57-.26,8.34-3.4,11.4-1.74,1.71.93,2.53,1.58,3.26,1.92h0c.73.41,4-.33,4.82-.46l.9-.18,2.11-.48c.88-.2,1.62-.56,2.75.4.45.38,2.72.33,3.39.06,1.15-.47,1.38-.51,2.52-1.07s2.44-1.69,3.54-1.07,1.3-.42,1.91-.77a.72.72,0,0,1,1,.29l0,0c.47.75,1.35.46,2,.07,1.33-.83,2.59-1.54,4-2.49a9.36,9.36,0,0,1,1.06-.61,6.41,6.41,0,0,1,1.52-.64,5.49,5.49,0,0,1,3.61.21c.51.29.94.75.66,1.34s-.86.24-1.26,0c-1.29-.66-2.91-.89-3.51.45-1.92,4.3.62,7,1.4,9.08a.42.42,0,0,1-.56.53,13.14,13.14,0,0,1-1.92-1.18,9.32,9.32,0,0,1-2.1-2.06,1.23,1.23,0,0,0-1.89-.35,4.25,4.25,0,0,1-5.13-.16c-.74-.51-1.25-.66-1.73.27a2,2,0,0,1-1.8,1.12.11.11,0,0,1-.1-.13.65.65,0,0,0,0-.19c0-2.63-6.09-.81-7.78.2h0c-.9.51-1.81,1-2.73,1.46l-.13.07,0,0c-.35.18-.7.36-1.06.53a.22.22,0,0,1-.24-.36c4-5.43-7.12-1.07-7.12-1.07a.42.42,0,0,1-.62-.5,1.09,1.09,0,0,0,0-1,1,1,0,0,0-.15-.19s0,0-.05,0c-.5-.47-1.15-.11-3.37.38a57.84,57.84,0,0,0-5.57,1.62c-.9.36-.77-.22-.71-.34s1.24-2.3-1.84-1.39l-1.29.4h0a10.21,10.21,0,0,0-1.34.37h0s-5.61,1.6-8.7,1.36a14.38,14.38,0,0,0-5.91,1h0s-8.2,2.82-15.37,2.6h0c-20.58-.68-37.78-1-61.72.23a31,31,0,0,0,5.86,4.65s17.46,1.72,35.63,2.93C160,95,176.4,97,185.48,98.23l1-2.4.28-.66,0-.06.09-.16.06-.09.1-.11.06-.07,0,0a1.71,1.71,0,0,1,.44-.32,2.32,2.32,0,0,1,1-.25h68.85a7.08,7.08,0,0,1,2.22.41,7.09,7.09,0,0,0,.95.21c6.54.9,12.21.23,13.17-5A1.86,1.86,0,0,0,273.81,87.86ZM209,53.2l-1.4,5.63a.26.26,0,0,1-.29.19c-.92-.13-4.28-.72-5.4-2.35l-.15-.23s0,0,0,0a0,0,0,0,1,0,0,.76.76,0,0,1-.09-.18c-.42-1,1-2.63,2.55-3.5h0a6.51,6.51,0,0,1,2.92-.5h.42a2.55,2.55,0,0,1,1.35.6A.44.44,0,0,1,209,53.2Zm.64-12.4a54.14,54.14,0,0,0-6-8.9.3.3,0,0,1,.16-.49,13.29,13.29,0,0,1,7.76.39c.77.25.82.72.66,1.3-.68,2.48-.94,5.08-2,7.68A.3.3,0,0,1,209.59,40.8Zm3.5,25.89a.18.18,0,0,1-.32.12c-3.3-3.72-1.27-6.4-1.84-7.24-.09-.14-.3-.17-.57-.19a.24.24,0,0,1-.23-.29c.26-1.39.51-2.8.78-4.26a.26.26,0,0,1,.4-.16,3.67,3.67,0,0,1,1.79,3.08C213.06,60.73,213,63.71,213.09,66.69Zm-.42-20v0h0a3,3,0,0,1-.29-1.44h0v-.05c0-.06,0-.12,0-.19a36,36,0,0,1,.81-4.87l1.45-6.81s.64.2,1.22,7.16a.41.41,0,0,1,0,.12v0c0,.12,0,.23,0,.36,0,.43.05.82.07,1.16q.42,6.66.85,13.34a.16.16,0,0,1-.31.08l-.21-.43h0l-.2-.47Zm5.06,21.81c-.62,0-1.09.06-1.54.07a.77.77,0,0,1-.76-.68,1.47,1.47,0,0,0,0-.26h0c0-2.38-.1-6.82,0-6.76.11-.13.63.86.87,1.36h0l0,.08c.05.1.09.2.13.3a19,19,0,0,1,1.35,4.93.53.53,0,0,1,0,.13c0,.08,0,.13,0,.13h0C217.86,68,217.94,68.49,217.73,68.49ZM220.53,58c-.28-6.77-1.64-13.15-1.4-19.66a.32.32,0,0,1,.54-.22c3.89,3.69,4.44,14.25,1.21,20A.19.19,0,0,1,220.53,58Zm1,8.78-.54.72c-.29.69.59-6.51.59-6.51v0c.1-1.76,3.09-5.21,6-6.17.91-.3,1.29,0,1,.83a10.66,10.66,0,0,1-1.08,2.53c-.67,1.16-1.44,2.28-2.22,3.38-1.22,1.72-2.49,3.42-3.8,5.21Zm6.42-4.57A1,1,0,0,0,227.5,64c1.42,1.1.3,1.71-.38,2.27C225.74,67.4,224,67.67,222,68.1a.17.17,0,0,1-.16-.27c3.12-3.79,5.81-7.51,9.51-10.93a.15.15,0,0,1,.24.15C230.86,59.43,231,61.82,227.91,62.22Zm3.87,1.4c0,.61-.26,1.14-.89,1.26s-.46-.4-.5-.73a1,1,0,0,1,.86-1.22C231.75,62.86,231.81,63.23,231.78,63.62Zm24.81-11.24c1.37,1,2.54,2.1,2.66,3.93s-1.25,2.32-2.45,2.88a6.44,6.44,0,0,1-3.86,1,.23.23,0,0,1-.17-.33,42,42,0,0,0,2.8-7.1C255.81,52.08,256.05,52,256.59,52.38ZM234,63.44a.11.11,0,0,1-.13-.08,2,2,0,0,1,1.29-2.55c.41-.18.68.26.7.6C235.91,62.7,235.1,63.19,234,63.44Zm1.26-4.52a.2.2,0,0,1-.25-.14c-.79-2.46.7-5.48,2.94-5.85,0,0,6.32-1.83,7.81-2.06l.46-.09c6.08-1.49,4.28.26,4.28.26A55.44,55.44,0,0,1,244.89,55a17.79,17.79,0,0,1-1.79,1c-.58.3-.88.43-.88.43h0A54,54,0,0,1,235.24,58.92Zm2.52,2.58a.11.11,0,0,1-.12-.13c.31-1.09.35-2.14,1.62-2.37.46-.08.5.31.52.69C239.88,61.1,238.94,61.27,237.76,61.5ZM241.51,60c.05-1.11.32-1.92,1.37-2.17a.6.6,0,0,1,.69.63c0,1.19-.78,1.58-1.94,1.65A.11.11,0,0,1,241.51,60Zm1.28,11.87s0,0,0,0c.46-.15,5.79-2.07,4.41-11.54h0C247.42,60.8,251.67,71,242.79,71.83ZM249.91,59c1.1-1.82.39-2.81-1.4-3.53a.22.22,0,0,1,0-.36c.59-.53,1.12-1,1.63-1.42s1.23-1.49,2.16-1a2.82,2.82,0,0,1,1.37,2.52c.12,2.08-1.07,3.64-2.06,5.29-.17.29-.36.57-.59.93a.31.31,0,0,1-.47.07A1.79,1.79,0,0,1,249.91,59Z"/></svg>