<svg xmlns="http://www.w3.org/2000/svg" width="46" height="46" viewBox="0 0 46 46"><g transform="translate(-64 -64)"><g transform="translate(64 64)"><g transform="translate(0 0)"><path d="M129.727,172.458l-8.194-8.158a16.558,16.558,0,0,0-4.133,10.086l11.56-.024A5.187,5.187,0,0,1,129.727,172.458Z" transform="translate(-111.003 -152.285)" fill="#fff"/><path d="M128.848,263l-11.548.024a16.544,16.544,0,0,0,4.432,10.47l8.134-8.17A5.165,5.165,0,0,1,128.848,263Z" transform="translate(-110.915 -239.161)" fill="#fff"/><path d="M172.97,292.3l-8.17,8.206a16.539,16.539,0,0,0,10.086,4.085l-.024-11.56A4.99,4.99,0,0,1,172.97,292.3Z" transform="translate(-152.725 -264.952)" fill="#fff"/><path d="M292.5,173.87l11.56-.024a16.627,16.627,0,0,0-4.2-10.146l-8.158,8.194A5.066,5.066,0,0,1,292.5,173.87Z" transform="translate(-264.423 -151.757)" fill="#fff"/><path d="M172.51,128.948l-.024-11.548a16.6,16.6,0,0,0-10.386,4.372l8.17,8.134A5.009,5.009,0,0,1,172.51,128.948Z" transform="translate(-150.348 -111.003)" fill="#fff"/><path d="M265.668,129.87l8.134-8.17a16.558,16.558,0,0,0-10.3-4.3l.024,11.56A5.047,5.047,0,0,1,265.668,129.87Z" transform="translate(-239.602 -111.003)" fill="#fff"/><path d="M291.986,263.024a5.115,5.115,0,0,1-.886,2.132l8.182,8.146a16.51,16.51,0,0,0,4.253-10.3Z" transform="translate(-263.895 -239.161)" fill="#fff"/><path d="M234.68,231.19a3.39,3.39,0,1,0-3.39,3.39A3.395,3.395,0,0,0,234.68,231.19Z" transform="translate(-208.266 -208.178)" fill="#fff"/><path d="M263.5,292.251l.024,11.548a16.641,16.641,0,0,0,10.23-4.253l-8.182-8.146A5.278,5.278,0,0,1,263.5,292.251Z" transform="translate(-239.602 -264.159)" fill="#fff"/><path d="M87,64a23,23,0,1,0,23,23A23.021,23.021,0,0,0,87,64Zm.012,41.412a18.4,18.4,0,1,1,18.4-18.4A18.42,18.42,0,0,1,87.012,105.412Z" transform="translate(-64 -64)" fill="#fff"/></g></g></g></svg>