<?xml version="1.0" encoding="utf-8"?>
<!-- Generator: Adobe Illustrator 24.0.3, SVG Export Plug-In . SVG Version: 6.00 Build 0)  -->
<svg version="1.1"
	 id="Layer_1" xmlns:cc="http://creativecommons.org/ns#" xmlns:dc="http://purl.org/dc/elements/1.1/" xmlns:inkscape="http://www.inkscape.org/namespaces/inkscape" xmlns:rdf="http://www.w3.org/1999/02/22-rdf-syntax-ns#" xmlns:sodipodi="http://sodipodi.sourceforge.net/DTD/sodipodi-0.dtd" xmlns:svg="http://www.w3.org/2000/svg"
	 xmlns="http://www.w3.org/2000/svg" xmlns:xlink="http://www.w3.org/1999/xlink" x="0px" y="0px" viewBox="0 0 76 62"
	 style="enable-background:new 0 0 76 62;" xml:space="preserve">
<style type="text/css">
	.st0{fill:#52B5CF;}
</style>
<g transform="translate(0,-952.36218)">
	<path class="st0" d="M27,952.4c-0.8,0-1.5,0.6-1.8,1.1l-3.5,6.9H8c-4.4,0-8,3.6-8,8v38c0,4.4,3.6,8,8,8h60c4.4,0,8-3.6,8-8v-38
		c0-4.4-3.6-8-8-8H54.2l-3.5-6.9c-0.3-0.7-1-1.1-1.8-1.1H27z M28.2,956.4h19.6l3.4,6.9c0.3,0.7,1,1.1,1.8,1.1h15c2.3,0,4,1.7,4,4v38
		c0,2.3-1.7,4-4,4H8c-2.3,0-4-1.7-4-4v-38c0-2.3,1.7-4,4-4h15c0.7,0,1.5-0.5,1.8-1.1L28.2,956.4z M38,970.4c-9.4,0-17,7.6-17,17
		c0,9.4,7.6,17,17,17c9.4,0,17-7.6,17-17C55,978,47.4,970.4,38,970.4z M38,974.4c7.2,0,13,5.8,13,13c0,7.2-5.8,13-13,13
		c-7.2,0-13-5.8-13-13C25,980.2,30.8,974.4,38,974.4z"/>
</g>
</svg>
