<svg xmlns="http://www.w3.org/2000/svg" width="803.711" height="793.945" viewBox="0 0 803.711 793.945"><path d="M422.852,75.684c21.484,0,38.086-9.277,50.293-27.344L908.691-634.766c8.789-14.16,12.7-25.391,12.7-36.621,0-27.832-19.043-46.875-47.363-46.875-19.531,0-30.762,7.324-42.969,26.367L420.9-39.551,208.984-315.43c-12.207-16.6-24.414-23.437-42.48-23.437-28.809,0-48.828,19.531-48.828,47.363,0,11.719,4.883,24.414,14.648,36.621L372.07,48.34C386.719,66.895,401.855,75.684,422.852,75.684Z" transform="translate(-117.676 718.262)" fill="#fff"/></svg>