<svg xmlns="http://www.w3.org/2000/svg" width="85.945" height="91.209" viewBox="0 0 85.945 91.209"><g transform="translate(0)"><path d="M48.322,33.43c-1.729-.123-3.115-.228-4.87-.36C46.444,21.945,49.375,11.038,52.332,0h8.774c-5.159,19.233-10.292,38.388-15.5,57.77,1.737.123,3.124.228,4.87.351C47.488,69.265,44.558,80.18,41.6,91.209H32.8C37.968,71.976,43.119,52.821,48.322,33.43Z" transform="translate(-4.02)" fill="#64c275"/><path d="M29.159,47.376h4.466c.105,1.974-6.66,28.113-8.573,33.3H16.34c6.019-22.208,12-44.258,18.031-66.474h3.58C35.012,25.308,32.125,36.206,29.159,47.376Z" transform="translate(-2.003 -1.74)" fill="#64c275"/><path d="M60.49,80.508H56.98c2.72-11.178,5.888-22.015,8.7-33.158-1.65-.079-3.124-.158-4.879-.246,2.966-11.117,5.888-22.041,8.845-33.114h8.9C72.493,36.277,66.5,58.353,60.49,80.508Z" transform="translate(-6.984 -1.715)" fill="#64c275"/><path d="M86.3,27.82h8.845c-3.834,14.144-7.616,28.087-11.415,42.1H75.07C78.834,55.793,82.546,41.894,86.3,27.82Z" transform="translate(-9.201 -3.41)" fill="#64c275"/><path d="M11.363,28.1h8.669c-3.773,14.153-7.493,28.1-11.24,42.126H0C3.685,56.125,7.581,42.235,11.363,28.1Z" transform="translate(0 -3.444)" fill="#64c275"/></g></svg>