<?xml version="1.0" encoding="utf-8"?>
<!-- Generator: Adobe Illustrator 24.0.3, SVG Export Plug-In . SVG Version: 6.00 Build 0)  -->
<svg version="1.1" id="Layer_1" xmlns="http://www.w3.org/2000/svg" xmlns:xlink="http://www.w3.org/1999/xlink" x="0px" y="0px"
	 viewBox="0 0 38 36" style="enable-background:new 0 0 38 36;" xml:space="preserve">
<style type="text/css">
	.st0{fill:#52B5CF;}
</style>
<title>lane-assist</title>
<desc>Created with Sketch.</desc>
<g>
	<g transform="translate(-363.000000, -300.000000)">
		<path class="st0" d="M389,301.3l10,34c0.2,0.5,0.7,0.8,1.2,0.7c0.5-0.2,0.8-0.7,0.7-1.2l-10-34c-0.2-0.5-0.7-0.8-1.2-0.7
			C389.2,300.2,388.9,300.8,389,301.3z M365,335.3c-0.2,0.5-0.7,0.8-1.2,0.7c-0.5-0.2-0.8-0.7-0.7-1.2l10-34
			c0.2-0.5,0.7-0.8,1.2-0.7c0.5,0.2,0.8,0.7,0.7,1.2L365,335.3z M383,305c0,0.6-0.4,1-1,1s-1-0.4-1-1v-1c0-0.6,0.4-1,1-1s1,0.4,1,1
			V305z M383,312c0,0.6-0.4,1-1,1s-1-0.4-1-1v-3c0-0.6,0.4-1,1-1s1,0.4,1,1V312z M383,321c0,0.6-0.4,1-1,1s-1-0.4-1-1v-5
			c0-0.6,0.4-1,1-1s1,0.4,1,1V321z M383,333c0,0.6-0.4,1-1,1s-1-0.4-1-1v-8c0-0.6,0.4-1,1-1s1,0.4,1,1V333z"/>
	</g>
</g>
</svg>
