<svg xmlns="http://www.w3.org/2000/svg" width="97.95" height="103.95" viewBox="0 0 97.95 103.95"><path d="M50.49,38.1c-1.97-.14-3.55-.26-5.55-.41C48.35,25.01,51.69,12.58,55.06,0h10C59.18,21.92,53.33,43.75,47.4,65.84c1.98.14,3.56.26,5.55.4-3.41,12.7-6.75,25.14-10.12,37.71H32.8C38.69,82.03,44.56,60.2,50.49,38.1Z" fill="#fff"/><path d="M30.95,52.01h5.09c.12,2.25-7.59,32.04-9.77,37.95H16.34C23.2,64.65,30.02,39.52,36.89,14.2h4.08C37.62,26.86,34.33,39.28,30.95,52.01Z" fill="#fff"/><path d="M60.98,89.8h-4c3.1-12.74,6.71-25.09,9.91-37.79-1.88-.09-3.56-.18-5.56-.28,3.38-12.67,6.71-25.12,10.08-37.74H81.55C74.66,39.39,67.83,64.55,60.98,89.8Z" fill="#fff"/><path d="M87.87,27.82H97.95C93.58,43.94,89.27,59.83,84.94,75.8H75.07C79.36,59.7,83.59,43.86,87.87,27.82Z" fill="#fff"/><path d="M12.95,28.1h9.88c-4.3,16.13-8.54,32.02-12.81,48.01H0C4.2,60.04,8.64,44.21,12.95,28.1Z" fill="#fff"/></svg>