<svg xmlns="http://www.w3.org/2000/svg" width="65.223" height="54.469" viewBox="0 0 65.223 54.469"><g transform="translate(-27 -50)"><g transform="translate(27 50)"><path d="M61.131,55.143a26.576,26.576,0,0,1,16.832,6.779l3.74-3.507A32.565,32.565,0,0,0,61.131,50ZM73.755,70.572,63.7,80.858a4.3,4.3,0,0,1-.935,4.675,3.994,3.994,0,0,1-6.078,0,4.167,4.167,0,0,1,0-6.078,4.24,4.24,0,0,1,4.675-.7L71.651,68.468ZM60.43,81.793a1.157,1.157,0,1,0,0,1.636A1.13,1.13,0,0,0,60.43,81.793ZM80.3,64.26A26.576,26.576,0,0,1,87.08,81.092h5.143A32.565,32.565,0,0,0,83.807,60.52ZM87.08,84.131A26.576,26.576,0,0,1,80.3,100.963l3.507,3.507a31.433,31.433,0,0,0,8.416-20.338ZM39.156,100.963a25.585,25.585,0,0,1-7.013-16.832H27a32.681,32.681,0,0,0,8.416,20.338ZM32.143,81.092A25.585,25.585,0,0,1,39.156,64.26l-3.74-3.74A33.89,33.89,0,0,0,27,81.092ZM41.26,61.922a26.576,26.576,0,0,1,16.832-6.779V50a31.433,31.433,0,0,0-20.338,8.416Z" transform="translate(-27 -50)" fill="#52b5cf"/></g></g></svg>