<?xml version="1.0" encoding="utf-8"?>
<!-- Generator: Adobe Illustrator 24.0.3, SVG Export Plug-In . SVG Version: 6.00 Build 0)  -->
<svg version="1.1" id="Layer_1" xmlns="http://www.w3.org/2000/svg" xmlns:xlink="http://www.w3.org/1999/xlink" x="0px" y="0px"
	 viewBox="0 0 65.2 54.5" style="enable-background:new 0 0 65.2 54.5;" xml:space="preserve">
<style type="text/css">
	.st0{fill:#FFFFFF;}
</style>
<g transform="translate(-27 -50)">
	<g transform="translate(27 50)">
		<path class="st0" d="M34.1,5.1c6.2,0.2,12.2,2.6,16.8,6.8l3.7-3.5C49,3.3,41.8,0.3,34.1,0V5.1z M46.8,20.6L36.7,30.9
			c0.7,1.6,0.3,3.4-0.9,4.7c-1.4,1.7-4,1.9-5.6,0.4c-0.2-0.1-0.3-0.3-0.4-0.4c-1.7-1.6-1.8-4.2-0.2-5.9c0.1-0.1,0.1-0.1,0.2-0.2
			c1.3-1.2,3.1-1.4,4.7-0.7l10.3-10.3L46.8,20.6z M33.4,31.8c-0.5-0.5-1.2-0.5-1.6,0s-0.5,1.2,0,1.6c0.5,0.5,1.2,0.5,1.6,0
			c0,0,0,0,0,0C33.9,33,33.9,32.3,33.4,31.8C33.5,31.8,33.4,31.8,33.4,31.8z M53.3,14.3c4.2,4.6,6.6,10.6,6.8,16.8h5.1
			c-0.3-7.6-3.3-14.9-8.4-20.6L53.3,14.3z M60.1,34.1c-0.2,6.2-2.6,12.2-6.8,16.8l3.5,3.5c5.2-5.5,8.2-12.8,8.4-20.3L60.1,34.1z
			 M12.2,51c-4.3-4.6-6.8-10.6-7-16.8H0c0.4,7.5,3.3,14.7,8.4,20.3L12.2,51z M5.1,31.1c0.2-6.3,2.7-12.3,7-16.8l-3.7-3.7
			c-5,5.7-8,13-8.4,20.6H5.1z M14.3,11.9c4.6-4.2,10.6-6.6,16.8-6.8V0c-7.6,0.3-14.8,3.3-20.3,8.4L14.3,11.9z"/>
	</g>
</g>
</svg>
