<?xml version="1.0" encoding="utf-8"?>
<!-- Generator: Adobe Illustrator 24.0.3, SVG Export Plug-In . SVG Version: 6.00 Build 0)  -->
<svg version="1.1"
	 id="Layer_1" xmlns:cc="http://creativecommons.org/ns#" xmlns:dc="http://purl.org/dc/elements/1.1/" xmlns:inkscape="http://www.inkscape.org/namespaces/inkscape" xmlns:rdf="http://www.w3.org/1999/02/22-rdf-syntax-ns#" xmlns:sodipodi="http://sodipodi.sourceforge.net/DTD/sodipodi-0.dtd" xmlns:svg="http://www.w3.org/2000/svg"
	 xmlns="http://www.w3.org/2000/svg" xmlns:xlink="http://www.w3.org/1999/xlink" x="0px" y="0px" viewBox="0 0 100 96"
	 style="enable-background:new 0 0 100 96;" xml:space="preserve">
<style type="text/css">
	.st0{fill:#52B5CF;}
</style>
<g transform="translate(0,-952.36218)">
	<path class="st0" d="M36.8,952.4c-0.2,0-0.5,0.1-0.7,0.2l-35,16c-1.1,0.5-1.4,2.2-0.7,3.1l10.9,12.7L0.4,997.1
		c-0.7,0.9-0.4,2.6,0.7,3.1l10.8,5v25.2c0,0.8,0.5,1.5,1.2,1.8l36,16c0.5,0.2,1.1,0.2,1.6,0l36-16c0.7-0.3,1.2-1,1.2-1.8v-25.2
		l10.8-5c1.1-0.5,1.5-2.2,0.7-3.1l-10.9-12.7l10.9-12.7c0.8-0.9,0.4-2.6-0.7-3.1l-35-16c-0.3-0.1-0.7-0.2-1-0.2
		c-0.5,0-1,0.3-1.3,0.6L50,965.4L38.4,953C38,952.6,37.4,952.3,36.8,952.4L36.8,952.4z M36.5,956.8l10.1,10.9l-32.1,14.3l-9.3-10.8
		L36.5,956.8z M63.4,956.8l31.3,14.3l-9.3,10.8l-32.1-14.3L63.4,956.8z M50,970.6L81,984.4L50,998.2l-31.1-13.8L50,970.6z
		 M14.5,986.8l32.1,14.3l-10.1,10.9L5.2,997.6L14.5,986.8z M85.4,986.8l9.3,10.8l-31.3,14.3l-10.1-10.9L85.4,986.8z M48,1005.5v37.8
		l-32-14.2V1007l20.2,9.2c0.8,0.4,1.7,0.2,2.3-0.5L48,1005.5z M52,1005.5l9.5,10.2c0.6,0.6,1.5,0.8,2.3,0.5L84,1007v22.1l-32,14.2
		V1005.5z"/>
</g>
</svg>
