<svg xmlns="http://www.w3.org/2000/svg" width="491.053" height="521.133" viewBox="0 0 491.053 521.133"><g opacity="0.472"><g transform="translate(0)"><path d="M121.485,191.007c-9.876-.7-17.8-1.3-27.824-2.055C110.757,125.383,127.5,63.067,144.4,0h50.133c-29.478,109.892-58.806,219.332-88.535,330.076,9.926.7,17.847,1.3,27.824,2.005-17.1,63.669-33.84,126.034-50.735,189.052H32.8C62.328,411.241,91.756,301.8,121.485,191.007Z" transform="translate(131.636)" fill="#e8e5e5"/><path d="M89.584,203.753H115.1c.6,11.28-38.051,160.626-48.98,190.255H16.34C50.731,267.121,84.922,141.137,119.363,14.2h20.454C123.023,77.668,106.529,139.934,89.584,203.753Z" transform="translate(65.577 56.989)" fill="#e8e5e5"/><path d="M77.033,394.048H56.98C72.521,330.179,90.619,268.265,106.662,204.6c-9.425-.451-17.847-.9-27.874-1.4,16.945-63.519,33.639-125.934,50.534-189.2h50.835C145.615,141.328,111.374,267.463,77.033,394.048Z" transform="translate(228.678 56.146)" fill="#e8e5e5"/><path d="M139.24,27.82h50.534c-21.908,80.814-43.515,160.476-65.223,240.538H75.07C96.577,187.644,117.783,108.233,139.24,27.82Z" transform="translate(301.279 111.65)" fill="#e8e5e5"/><path d="M64.922,28.1h49.531C92.9,108.965,71.64,188.626,50.233,268.789H0C21.056,188.225,43.315,108.864,64.922,28.1Z" transform="translate(0 112.774)" fill="#e8e5e5"/></g></g></svg>