<svg xmlns="http://www.w3.org/2000/svg" width="1269.324" height="469.755" viewBox="0 0 1269.324 469.755"><path d="M233.892-93.951,107.748-458.586H9.2L177.39,0H289.08L457.272-458.586H359.379ZM643.86,0h91.98V-458.586H643.86Zm634.662-132.714c0-161.622-235.206-110.376-235.206-202.356,0-37.449,26.937-55.188,63.072-53.874,39.42.657,63.729,24.309,65.7,54.531h101.178c-5.913-82.782-70.3-130.743-164.25-130.743-94.608,0-161.622,49.932-161.622,132.714-.657,166.221,235.863,106.434,235.863,205.641,0,32.85-25.623,55.845-68.985,55.845-42.7,0-67.014-24.309-69.642-61.1H946.08C947.394-45.333,1020.978,4.6,1116.243,4.6,1220.706,4.6,1278.522-60.444,1278.522-132.714Z" transform="translate(-9.198 465.156)" opacity="0.15"/></svg>