<svg xmlns="http://www.w3.org/2000/svg" width="102.938" height="122.414" viewBox="0 0 102.938 122.414"><path d="M112.624,93.768A49.675,49.675,0,0,0,85.276,60.04a33.7,33.7,0,0,0,.13-46.752A32.767,32.767,0,0,0,61.965,3h-.651A33.408,33.408,0,0,0,28.236,36.989a34.3,34.3,0,0,0,9.246,22.92l.391.391a49.837,49.837,0,0,0-26.7,33.078A18.645,18.645,0,0,0,14.3,110.047c9.507,12.111,34.38,15.367,48.054,15.367h.651c25.394,0,40.761-7.944,46.231-14.976A18.366,18.366,0,0,0,112.624,93.768ZM33.445,36.078a28.182,28.182,0,0,1,28-27.869h.521A27.948,27.948,0,0,1,81.63,16.8a28.381,28.381,0,0,1-.912,40.11,27.959,27.959,0,0,1-19.795,7.814,27.294,27.294,0,0,1-19.664-8.465A27.986,27.986,0,0,1,33.445,36.078Zm71.755,71.1c-7.423,9.246-28,13.283-44.147,13.023h-.13c-15.888-.26-35.422-4.428-42.584-13.413A13.059,13.059,0,0,1,16.125,94.68,44.8,44.8,0,0,1,42.171,63.946a33.138,33.138,0,0,0,18.622,6.121h.651a33.453,33.453,0,0,0,19.4-6.251h.13a44.864,44.864,0,0,1,26.7,31.255A13.531,13.531,0,0,1,105.2,107.182Z" transform="translate(-10.416 -3)" fill="#fff"/></svg>