<svg xmlns="http://www.w3.org/2000/svg" width="72.562" height="72.564" viewBox="0 0 72.562 72.564"><g transform="translate(1124.075 692.041)"><g transform="translate(-1122.575 -690.527)"><path d="M72.964,15.487l-8.245,8.245a4.425,4.425,0,0,1-6.184,0l-3.817-3.817a4.425,4.425,0,0,1,0-6.184l8.245-8.245A16.784,16.784,0,0,0,41.357,26.939L6.544,61.752a7.142,7.142,0,0,0,0,10.154h0a7.142,7.142,0,0,0,10.154,0L51.434,37.093A16.846,16.846,0,0,0,72.964,15.487ZM11.124,69.616a2.46,2.46,0,0,1-2.443-2.443,2.512,2.512,0,0,1,2.443-2.443,2.512,2.512,0,0,1,2.443,2.443A2.46,2.46,0,0,1,11.124,69.616Z" transform="translate(-4.425 -4.473)" fill="none" stroke="#771b2f" stroke-width="3"/></g></g></svg>