<svg xmlns="http://www.w3.org/2000/svg" width="59.581" height="65.223" viewBox="0 0 59.581 65.223"><g transform="translate(11.933 35.869)"><path d="M11.21,12.624l2.416.765a5.43,5.43,0,0,1-1.85,3.006,5.28,5.28,0,0,1-3.282.981A5.318,5.318,0,0,1,4.451,15.7a6.44,6.44,0,0,1-1.585-4.6A6.761,6.761,0,0,1,4.459,6.307,5.463,5.463,0,0,1,8.648,4.6a5.133,5.133,0,0,1,3.682,1.34A4.853,4.853,0,0,1,13.6,8.217l-2.471.59a2.55,2.55,0,0,0-2.6-2.074,2.808,2.808,0,0,0-2.229.987,4.831,4.831,0,0,0-.854,3.193,5.166,5.166,0,0,0,.843,3.337,2.729,2.729,0,0,0,2.189,1,2.491,2.491,0,0,0,1.712-.633,3.682,3.682,0,0,0,1.03-1.988Zm15.7,4.542H24.195l-1.079-2.807H18.177l-1.018,2.807H14.513L19.325,4.811h2.638L26.91,17.165Zm-4.594-4.887-1.7-4.585-1.668,4.585Zm5.908-7.467h4.559a8.867,8.867,0,0,1,2.35.236A4.1,4.1,0,0,1,37,6.186a5.389,5.389,0,0,1,1.182,2,9.2,9.2,0,0,1,.4,2.923,8.117,8.117,0,0,1-.38,2.629,5.4,5.4,0,0,1-1.323,2.18,4.352,4.352,0,0,1-1.752.987,7.493,7.493,0,0,1-2.209.262H28.225V4.811ZM30.719,6.9v8.181H32.58a6.714,6.714,0,0,0,1.51-.118,2.307,2.307,0,0,0,1.007-.512,2.632,2.632,0,0,0,.653-1.194A8.125,8.125,0,0,0,36,11a7.425,7.425,0,0,0-.253-2.2,2.836,2.836,0,0,0-.708-1.2,2.374,2.374,0,0,0-1.156-.581A11.124,11.124,0,0,0,31.838,6.9H30.719Z" transform="translate(-2.866 -4.601)" fill="#fff"/></g><path d="M2.407,30.984a.973.973,0,1,0,1.947,0V3.6h34.09l8.9,8.9V30.984a.973.973,0,1,0,1.947,0V12.1h0a.97.97,0,0,0-.285-.688h0L39.54,1.943a.97.97,0,0,0-.692-.289H3.38a.974.974,0,0,0-.973.973V30.984ZM49.292,56.835a.973.973,0,1,0-1.947,0V64.93H4.354V56.835a.973.973,0,1,0-1.947,0V65.9a.974.974,0,0,0,.973.973H48.319a.974.974,0,0,0,.973-.973V56.835Z" transform="translate(3.941 -1.653)" fill="#fff"/><path d="M7.268,2.627a.973.973,0,1,0-1.947,0V7.363a5.723,5.723,0,0,0,5.709,5.709h4.736a.973.973,0,0,0,0-1.947H11.031A3.776,3.776,0,0,1,7.268,7.363V2.627Z" transform="translate(36.493 -1.653)" fill="#fff"/><path d="M3.832,29.834H59.519V5.931H3.832v23.9Zm56.66,1.947H2.859a.974.974,0,0,1-.973-.973V4.957a.974.974,0,0,1,.973-.973H60.492a.974.974,0,0,1,.973.973V30.808A.974.974,0,0,1,60.492,31.781Z" transform="translate(-1.885 24.374)" fill="#fff"/><path d="M4.013,2.57a.973.973,0,0,0,0,1.947H24.988a.973.973,0,0,0,0-1.947H4.013Z" transform="translate(11.011 8.588)" fill="#fff"/><path d="M4.013,3.012a.973.973,0,0,0,0,1.947H33.546a.973.973,0,1,0,0-1.947H4.013Z" transform="translate(11.011 13.516)" fill="#fff"/><path d="M4.013,3.453a.973.973,0,0,0,0,1.947H33.546a.973.973,0,1,0,0-1.947H4.013Z" transform="translate(11.011 18.444)" fill="#fff"/></svg>