<svg xmlns="http://www.w3.org/2000/svg" width="95.413" height="113.466" viewBox="0 0 95.413 113.466"><path d="M105.153,87.134A46.044,46.044,0,0,0,79.8,55.87a31.237,31.237,0,0,0,.121-43.334A30.372,30.372,0,0,0,58.2,3h-.6a30.966,30.966,0,0,0-30.66,31.5A31.793,31.793,0,0,0,35.5,55.75l.362.362a46.194,46.194,0,0,0-24.745,30.66,17.282,17.282,0,0,0,2.9,15.451c8.812,11.226,31.867,14.244,44.541,14.244h.6c23.538,0,37.782-7.363,42.851-13.881A17.024,17.024,0,0,0,105.153,87.134ZM31.762,33.66A26.122,26.122,0,0,1,57.714,7.828H58.2A25.905,25.905,0,0,1,76.424,15.8a26.307,26.307,0,0,1-.845,37.178,25.916,25.916,0,0,1-18.348,7.242A25.3,25.3,0,0,1,39,52.37,25.94,25.94,0,0,1,31.762,33.66Zm66.51,65.907c-6.88,8.57-25.952,12.312-40.92,12.071h-.121C42.505,111.4,24.4,107.533,17.76,99.2a12.1,12.1,0,0,1-2.052-11.226A41.528,41.528,0,0,1,39.85,59.492a30.715,30.715,0,0,0,17.261,5.673h.6A31.007,31.007,0,0,0,75.7,59.371h.121a41.584,41.584,0,0,1,24.745,28.97A12.542,12.542,0,0,1,98.272,99.567Z" transform="translate(-10.416 -3)" fill="#771c2f"/></svg>