<svg xmlns="http://www.w3.org/2000/svg" width="84.546" height="75.688" viewBox="0 0 84.546 75.688"><g transform="translate(57.29 -34.576) rotate(56)"><path d="M70.661,20.566H61.738V17.514a1.629,1.629,0,0,0-1.63-1.63H49.727a1.629,1.629,0,0,0-1.63,1.63v3.053H44.784a1.624,1.624,0,0,0-.753.185l-12.163,6.34a1.631,1.631,0,0,0-.877,1.454l.036,6.9a1.63,1.63,0,0,0,1.63,1.621H48.1V88.379a1.629,1.629,0,0,0,1.63,1.63H60.109a1.63,1.63,0,0,0,1.63-1.63V37.063h8.923a1.629,1.629,0,0,0,1.63-1.63V22.2A1.629,1.629,0,0,0,70.661,20.566Zm-19.3-1.423h7.122v1.423H51.357Zm7.122,67.606H51.357V37.063h7.122ZM69.032,33.8H34.278l-.022-4.282,10.928-5.7H69.032V33.8Z" transform="translate(0 0)" fill="#fff"/></g></svg>