<svg xmlns="http://www.w3.org/2000/svg" width="86.307" height="35.961" viewBox="0 0 86.307 35.961"><g transform="translate(-2 -30)"><g transform="translate(2 30)"><path d="M84.71,53.38a1.8,1.8,0,0,1-1.8,1.793h-1.8V40.788h1.8a1.8,1.8,0,0,1,1.8,1.793ZM68.536,62.365H53.291c-.307-.517-.668-1.091-1.075-1.669-2.235-3.18-4.545-4.726-7.063-4.726-3.72,0-6.539,3.6-8.166,6.4H21.77a8.992,8.992,0,0,1-8.982-8.981V42.577A9,9,0,0,1,21.781,33.6H68.525a9,9,0,0,1,8.993,8.981V53.384A8.992,8.992,0,0,1,68.536,62.365ZM9.192,55.173h-1.8A1.8,1.8,0,0,1,5.6,53.38v-10.8a1.8,1.8,0,0,1,1.8-1.793h1.8Zm73.72-17.981H79.887A12.583,12.583,0,0,0,68.525,30H21.781a12.586,12.586,0,0,0-11.363,7.192H7.394A5.4,5.4,0,0,0,2,42.581v10.8a5.392,5.392,0,0,0,5.394,5.389h3.024A12.57,12.57,0,0,0,21.77,65.961H39.159s3-6.4,5.994-6.4,5.994,6.4,5.994,6.4H68.536a12.57,12.57,0,0,0,11.353-7.192h3.023a5.392,5.392,0,0,0,5.394-5.389v-10.8A5.4,5.4,0,0,0,82.912,37.192Z" transform="translate(-2 -30)" fill="#771c2f" fill-rule="evenodd"/><path d="M33.082,36h-8.99A8.1,8.1,0,0,0,16,44.091v4.5a1.8,1.8,0,0,0,3.6,0v-4.5a4.5,4.5,0,0,1,4.5-4.5h8.99a1.8,1.8,0,1,0,0-3.6" transform="translate(-3.414 -30.606)" fill="#771c2f" fill-rule="evenodd"/></g></g></svg>