<svg xmlns="http://www.w3.org/2000/svg" width="90.434" height="103.208" viewBox="0 0 90.434 103.208"><path d="M92.636,97.412H8.806a2.206,2.206,0,0,1,0-4.412h83.83a2.206,2.206,0,0,1,0,4.412Z" transform="translate(-6.503 5.796)" fill="#fff"/><path d="M92.181,8.074c-6.431-6.221-13.578-6.221-20.13.188L9.984,68.927a2.206,2.206,0,0,0-.618,1.2L6.532,90.337a2.118,2.118,0,0,0,.651,1.831,2.206,2.206,0,0,0,1.478.585,2.414,2.414,0,0,0,.4,0L28.824,89.08a2.206,2.206,0,0,0,1.1-.574L86.335,33.355h0l5.647-5.515c3.309-3.221,4.964-6.618,4.964-10.026S95.358,11.173,92.181,8.074Zm-64.8,76.914-16.17,3,2.316-16.545L62.554,23.527h0L75.879,37.315l.121.1ZM88.972,24.8l-5.647,5.515L79.066,34.48l-.055-.077L65.687,20.6l-.088-.077,9.464-9.243c4.875-4.765,9.354-4.82,14.108-.188,2.316,2.206,3.486,4.522,3.486,6.7S91.42,22.413,88.972,24.8Z" transform="translate(-6.512 -3.431)" fill="#fff"/></svg>