<svg xmlns="http://www.w3.org/2000/svg" width="63.02" height="71.922" viewBox="0 0 63.02 71.922"><g transform="translate(-6.765 -3.431)"><path d="M66.555,96.075H8.137a1.537,1.537,0,0,1,0-3.075H66.555a1.537,1.537,0,0,1,0,3.075Z" transform="translate(0.233 -20.721)" fill="#fff"/><path d="M66.212,6.666C61.731,2.331,56.75,2.331,52.184,6.8L8.932,49.073a1.537,1.537,0,0,0-.43.838L6.526,63.993a1.476,1.476,0,0,0,.454,1.276,1.537,1.537,0,0,0,1.03.407,1.681,1.681,0,0,0,.277,0l13.774-2.56a1.537,1.537,0,0,0,.769-.4L62.138,24.284h0l3.936-3.843c2.306-2.244,3.459-4.612,3.459-6.987S68.426,8.826,66.212,6.666Zm-45.159,53.6L9.785,62.355,11.4,50.826l34.167-33.39h0l9.285,9.608.085.069ZM63.975,18.319,60.04,22.162l-2.967,2.906-.038-.054L47.749,15.4l-.061-.054,6.6-6.441c3.4-3.321,6.518-3.359,9.831-.131a6.685,6.685,0,0,1,2.429,4.666C66.543,14.952,65.682,16.659,63.975,18.319Z" transform="translate(0.253 0)" fill="#fff"/></g></svg>