<svg xmlns="http://www.w3.org/2000/svg" width="141.271" height="126.47" viewBox="0 0 141.271 126.47"><g transform="translate(0)"><g transform="translate(98.52 -34.576) rotate(56)"><path d="M97.277,23.708H82.367v-5.1a2.723,2.723,0,0,0-2.723-2.723H62.3a2.722,2.722,0,0,0-2.723,2.723v5.1H54.038a2.713,2.713,0,0,0-1.258.309L32.457,34.61a2.724,2.724,0,0,0-1.465,2.429l.06,11.527a2.723,2.723,0,0,0,2.723,2.708h25.8v85.744a2.723,2.723,0,0,0,2.723,2.723H79.644a2.724,2.724,0,0,0,2.723-2.723V51.272h14.91A2.723,2.723,0,0,0,100,48.549V26.431A2.723,2.723,0,0,0,97.277,23.708ZM65.02,21.33h11.9v2.378H65.02ZM76.921,134.3H65.02V51.272h11.9ZM94.554,45.826H36.483l-.036-7.156,18.259-9.517H94.554V45.826Z" transform="translate(0 0)" fill="#771c2f"/></g></g></svg>