<svg xmlns="http://www.w3.org/2000/svg" width="116.642" height="117.102" viewBox="0 0 116.642 117.102"><path d="M61.826,120.1A58.551,58.551,0,1,1,62.075,3,56.238,56.238,0,0,1,80.264,5.99a2.465,2.465,0,1,1-1.37,4.734h-.125A53.9,53.9,0,0,0,10.626,45.107,52.927,52.927,0,0,0,7.885,61.551a53.911,53.911,0,0,0,107.136,8.1A2.519,2.519,0,1,1,120,70.4h0C115.643,98.8,90.6,120.1,61.826,120.1Z" transform="translate(-3.4 -3)" fill="#fff"/><path d="M53.784,77.09a2.46,2.46,0,0,1-1.744-.747L27.747,52.175a2.466,2.466,0,0,1,3.488-3.488L53.784,71.11l51.7-51.45a2.468,2.468,0,0,1,3.613,3.364l-.125.125L55.528,76.342A2.46,2.46,0,0,1,53.784,77.09Z" transform="translate(2.4 0.896)" fill="#fff"/></svg>