<svg xmlns="http://www.w3.org/2000/svg" width="30.284" height="58.826" viewBox="0 0 30.284 58.826"><path d="M-2.312,5.829H.636V.469C9.949.067,14.3-6.3,14.3-12.328c0-9.313-6.968-11.323-13.668-13.065V-43.282a9.111,9.111,0,0,1,7.906,7.3H13.5C12.764-41.942,8.274-46.565.636-47.3V-53H-2.312v5.628c-8.509.4-13.668,5.494-13.668,12.462,0,9.112,6.968,11.055,13.668,12.864V-3.484c-5.695-.8-8.241-4.891-8.576-8.442h-5.025C-15.578-5.226-10.285-.335-2.312.4ZM9.615-12.127C9.615-7.5,6.532-3.685.636-3.35V-21.172C5.528-19.7,9.615-17.755,9.615-12.127ZM-11.223-35.108c0-5.36,3.752-8.107,8.911-8.375v17.219C-7.2-27.671-11.223-29.614-11.223-35.108Z" transform="translate(15.979 52.997)" fill="#771c2f"/></svg>