<svg xmlns="http://www.w3.org/2000/svg" width="70.994" height="50.287" viewBox="0 0 70.994 50.287"><g transform="translate(0 -14)"><path d="M60.64,64.287H10.353A10.365,10.365,0,0,1,0,53.934V30.269A10.365,10.365,0,0,1,10.353,19.916H22.762L25.4,14.8a1.481,1.481,0,0,1,1.313-.8h17.84a1.469,1.469,0,0,1,1.313.8l2.639,5.114H60.64A10.365,10.365,0,0,1,70.994,30.269V53.934A10.365,10.365,0,0,1,60.64,64.287ZM10.353,22.874a7.4,7.4,0,0,0-7.4,7.4V53.934a7.4,7.4,0,0,0,7.4,7.4H60.64a7.4,7.4,0,0,0,7.4-7.4V30.269a7.4,7.4,0,0,0-7.4-7.4H47.607a1.464,1.464,0,0,1-1.31-.8l-2.639-5.114H27.619l-2.639,5.114a1.481,1.481,0,0,1-1.313.8H10.353Z" fill="#771c2f"/><path d="M42.269,60.539A16.269,16.269,0,1,1,58.539,44.269,16.289,16.289,0,0,1,42.269,60.539Zm0-29.581A13.311,13.311,0,1,0,55.581,44.269,13.329,13.329,0,0,0,42.269,30.958Z" transform="translate(-6.773 -3.647)" fill="#771c2f"/><path d="M17.479,21.916A1.48,1.48,0,0,1,16,20.437V17.479a1.479,1.479,0,1,1,2.958,0v2.958A1.48,1.48,0,0,1,17.479,21.916Z" transform="translate(-4.168 -0.521)" fill="#771c2f"/><path d="M82.437,32.958H79.479a1.479,1.479,0,1,1,0-2.958h2.958a1.479,1.479,0,0,1,0,2.958Z" transform="translate(-20.318 -4.168)" fill="#771c2f"/></g></svg>