<svg xmlns="http://www.w3.org/2000/svg" width="184.838" height="116.138" viewBox="0 0 184.838 116.138"><g transform="translate(2.5 2.5)"><ellipse cx="8.415" cy="5.513" rx="8.415" ry="5.513" transform="translate(81.612 21.473)" fill="none" stroke="#771b2f" stroke-linejoin="round" stroke-miterlimit="10" stroke-width="5"/><path d="M3.073,38.645,91.287,13.4h1.161l87.634,25.245a1.814,1.814,0,0,1,0,3.482L92.158,67.373H91L3.073,42.128C1.042,41.547,1.042,38.936,3.073,38.645Z" transform="translate(-1.55 -13.4)" fill="none" stroke="#771b2f" stroke-linejoin="round" stroke-miterlimit="10" stroke-width="5"/><path d="M18.7,23.4,50.91,35.587V57.351" transform="translate(79.162 5.618)" fill="none" stroke="#771b2f" stroke-linejoin="round" stroke-miterlimit="10" stroke-width="5"/><path d="M14.5,83.27,20.594,49.9a7.9,7.9,0,0,1-2.612-6.094,8.705,8.705,0,1,1,17.411,0A7.9,7.9,0,0,1,32.781,49.9l6.094,33.37Z" transform="translate(103.385 27.869)" fill="none" stroke="#771b2f" stroke-linejoin="round" stroke-miterlimit="10" stroke-width="5"/><path d="M103.529,65.694C92.5,69.756,81.476,73.238,71.61,74.979a7.073,7.073,0,0,1-3.482,0c-15.67-2.9-32.21-8.415-49.33-16.25a10.359,10.359,0,0,1-5.8-10.156A50.092,50.092,0,0,1,20.539,27.1L69,41.319h1.161l48.75-13.929a53.879,53.879,0,0,1,7.254,21.473,9.561,9.561,0,0,1-5.8,10.156c-.871.29-1.451.58-2.321.871" transform="translate(20.449 12.654)" fill="none" stroke="#771b2f" stroke-linejoin="round" stroke-miterlimit="10" stroke-width="5"/></g></svg>